<svg width="45" height="44" viewBox="0 0 45 44" fill="none" xmlns="http://www.w3.org/2000/svg">
<g clip-path="url(#clip0)">
<path d="M15.7749 17.5388L15.2764 20.4411H21.6246L20.3318 17.5388H15.7749Z" fill="#3994C6"/>
<path d="M39.0228 0H5.9772C4.39141 0.00150247 2.8711 0.618507 1.75033 1.71544C0.629553 2.81237 -7.44483e-07 4.29949 0 5.85004L0 38.1613C0.000760966 38.9288 0.156119 39.6886 0.457205 40.3974C0.75829 41.1062 1.19921 41.7501 1.75478 42.2922C2.31035 42.8344 2.9697 43.2643 3.69518 43.5573C4.42066 43.8503 5.19806 44.0007 5.98299 44H39.0286C39.8133 44 40.5902 43.8488 41.3151 43.555C42.04 43.2612 42.6985 42.8307 43.2531 42.2879C43.8076 41.7451 44.2474 41.1008 44.5471 40.3917C44.8469 39.6827 45.0008 38.9229 45 38.1556V5.84437C45 5.07688 44.8454 4.3169 44.545 3.60783C44.2446 2.89875 43.8044 2.25448 43.2493 1.71178C42.6943 1.16908 42.0354 0.738583 41.3102 0.444876C40.585 0.151169 39.8077 0 39.0228 0V0ZM37.2836 16.6375C36.9719 18.76 35.9452 20.7202 34.3659 22.2079C32.7866 23.6957 30.745 24.6259 28.5642 24.8513L34.5356 38.2973H29.5671L23.6073 24.9023H14.4937L12.2327 38.2973H7.59469L10.6326 20.4808V20.4411L11.8848 13.0719H23.329L26.5988 20.4411H27.5786C28.9716 20.4411 30.3076 19.9 31.2927 18.9369C32.2777 17.9737 32.8311 16.6674 32.8311 15.3053C32.8311 13.9432 32.2777 12.6369 31.2927 11.6738C30.3076 10.7106 28.9716 10.1695 27.5786 10.1695H12.3892L13.1487 5.70265H27.5786C28.9831 5.70316 30.3712 5.99821 31.6491 6.56791C32.9271 7.13761 34.0652 7.9687 34.9867 9.0051C35.9081 10.0415 36.5916 11.2591 36.9908 12.5757C37.39 13.8924 37.4958 15.2774 37.3009 16.6375H37.2836Z" fill="#3994C6"/>
</g>
<defs>
<clipPath id="clip0">
<rect width="45" height="44" fill="white"/>
</clipPath>
</defs>
</svg>
